<svg width="375" height="70" viewBox="0 0 375 70" fill="none" xmlns="http://www.w3.org/2000/svg">
<path d="M102.675 14.875C104.006 14.875 105.106 15.325 105.977 16.225C106.847 17.075 107.282 18.15 107.282 19.45V38.5C107.282 43.9 105.746 48.125 102.675 51.175C99.654 54.225 95.3279 55.75 89.6963 55.75C84.0646 55.75 79.7385 54.225 76.7179 51.175C73.6973 48.125 72.187 43.9 72.187 38.5V19.45C72.187 18.15 72.6222 17.075 73.4925 16.225C74.3629 15.325 75.4636 14.875 76.7947 14.875C78.1258 14.875 79.2265 15.325 80.0969 16.225C80.9672 17.075 81.4024 18.15 81.4024 19.45V38.5C81.4024 41.55 82.0936 43.825 83.4759 45.325C84.8582 46.775 86.9316 47.5 89.6963 47.5C92.5121 47.5 94.6111 46.775 95.9934 45.325C97.3758 43.825 98.0669 41.55 98.0669 38.5V19.45C98.0669 18.15 98.5021 17.075 99.3724 16.225C100.243 15.325 101.343 14.875 102.675 14.875Z" fill="#005847"/>
<path d="M138.531 14.125C142.064 14.125 145.264 15.025 148.131 16.825C150.998 18.575 153.25 21.025 154.889 24.175C156.578 27.325 157.423 30.9 157.423 34.9C157.423 38.9 156.604 42.5 154.965 45.7C153.327 48.85 151.074 51.325 148.207 53.125C145.392 54.875 142.269 55.75 138.838 55.75C136.381 55.75 134.052 55.275 131.85 54.325C129.7 53.325 127.908 52.125 126.474 50.725V65.425C126.474 66.725 126.039 67.8 125.169 68.65C124.299 69.55 123.198 70 121.867 70C120.536 70 119.435 69.575 118.565 68.725C117.694 67.875 117.259 66.775 117.259 65.425V19.45C117.259 18.15 117.694 17.075 118.565 16.225C119.435 15.325 120.536 14.875 121.867 14.875C123.198 14.875 124.299 15.325 125.169 16.225C126.039 17.075 126.474 18.15 126.474 19.45V19.75C127.703 18.25 129.418 16.95 131.62 15.85C133.821 14.7 136.125 14.125 138.531 14.125ZM137.379 47.5C140.656 47.5 143.344 46.3 145.443 43.9C147.542 41.5 148.591 38.5 148.591 34.9C148.591 31.3 147.542 28.325 145.443 25.975C143.395 23.575 140.707 22.375 137.379 22.375C134.052 22.375 131.338 23.575 129.239 25.975C127.14 28.325 126.09 31.3 126.09 34.9C126.09 38.5 127.14 41.5 129.239 43.9C131.338 46.3 134.052 47.5 137.379 47.5Z" fill="#005847"/>
<path d="M186.378 14.125C189.911 14.125 193.11 15.025 195.977 16.825C198.844 18.575 201.097 21.025 202.735 24.175C204.425 27.325 205.27 30.9 205.27 34.9C205.27 38.9 204.45 42.5 202.812 45.7C201.174 48.85 198.921 51.325 196.054 53.125C193.238 54.875 190.115 55.75 186.685 55.75C184.228 55.75 181.898 55.275 179.697 54.325C177.547 53.325 175.755 52.125 174.321 50.725V65.425C174.321 66.725 173.886 67.8 173.016 68.65C172.145 69.55 171.045 70 169.714 70C168.382 70 167.282 69.575 166.411 68.725C165.541 67.875 165.106 66.775 165.106 65.425V19.45C165.106 18.15 165.541 17.075 166.411 16.225C167.282 15.325 168.382 14.875 169.714 14.875C171.045 14.875 172.145 15.325 173.016 16.225C173.886 17.075 174.321 18.15 174.321 19.45V19.75C175.55 18.25 177.265 16.95 179.467 15.85C181.668 14.7 183.972 14.125 186.378 14.125ZM185.226 47.5C188.503 47.5 191.191 46.3 193.29 43.9C195.389 41.5 196.438 38.5 196.438 34.9C196.438 31.3 195.389 28.325 193.29 25.975C191.242 23.575 188.554 22.375 185.226 22.375C181.898 22.375 179.185 23.575 177.086 25.975C174.987 28.325 173.937 31.3 173.937 34.9C173.937 38.5 174.987 41.5 177.086 43.9C179.185 46.3 181.898 47.5 185.226 47.5Z" fill="#005847"/>
<path d="M232.766 46.525C233.483 46.525 234.123 46.875 234.686 47.575C235.3 48.225 235.607 49.1 235.607 50.2C235.607 51.55 234.839 52.7 233.303 53.65C231.819 54.55 230.129 55 228.235 55C225.061 55 222.373 54.35 220.171 53.05C218.021 51.7 216.946 48.875 216.946 44.575V23.875H213.414C212.185 23.875 211.161 23.475 210.342 22.675C209.523 21.875 209.113 20.875 209.113 19.675C209.113 18.525 209.523 17.575 210.342 16.825C211.161 16.025 212.185 15.625 213.414 15.625H216.946V10.825C216.946 9.525 217.381 8.45 218.252 7.6C219.173 6.7 220.299 6.25 221.631 6.25C222.91 6.25 223.986 6.7 224.856 7.6C225.726 8.45 226.161 9.525 226.161 10.825V15.625H231.614C232.843 15.625 233.867 16.025 234.686 16.825C235.505 17.625 235.914 18.625 235.914 19.825C235.914 20.975 235.505 21.95 234.686 22.75C233.867 23.5 232.843 23.875 231.614 23.875H226.161V44.2C226.161 45.25 226.443 46.025 227.006 46.525C227.569 46.975 228.337 47.2 229.31 47.2C229.72 47.2 230.283 47.1 231 46.9C231.614 46.65 232.203 46.525 232.766 46.525Z" fill="#005847"/>
<path d="M253.053 50.425C253.053 51.725 252.618 52.825 251.748 53.725C250.878 54.575 249.777 55 248.446 55C247.115 55 246.014 54.575 245.144 53.725C244.273 52.825 243.838 51.725 243.838 50.425V19.45C243.838 18.15 244.273 17.075 245.144 16.225C246.014 15.325 247.115 14.875 248.446 14.875C249.777 14.875 250.878 15.325 251.748 16.225C252.618 17.075 253.053 18.15 253.053 19.45V50.425Z" fill="#005847"/>
<path d="M309.907 14.125C314.975 14.125 318.482 15.65 320.428 18.7C322.373 21.7 323.346 25.875 323.346 31.225V50.425C323.346 51.725 322.911 52.825 322.041 53.725C321.17 54.575 320.069 55 318.738 55C317.407 55 316.307 54.575 315.436 53.725C314.566 52.825 314.131 51.725 314.131 50.425V31.225C314.131 28.475 313.568 26.325 312.441 24.775C311.366 23.175 309.446 22.375 306.682 22.375C303.815 22.375 301.562 23.225 299.924 24.925C298.337 26.575 297.543 28.675 297.543 31.225V50.425C297.543 51.725 297.108 52.825 296.237 53.725C295.367 54.575 294.266 55 292.935 55C291.604 55 290.503 54.575 289.633 53.725C288.763 52.825 288.328 51.725 288.328 50.425V31.225C288.328 28.475 287.764 26.325 286.638 24.775C285.563 23.175 283.643 22.375 280.878 22.375C278.011 22.375 275.759 23.225 274.121 24.925C272.533 26.575 271.74 28.675 271.74 31.225V50.425C271.74 51.725 271.305 52.825 270.434 53.725C269.564 54.575 268.463 55 267.132 55C265.801 55 264.7 54.575 263.83 53.725C262.96 52.825 262.524 51.725 262.524 50.425V19.45C262.524 18.15 262.96 17.075 263.83 16.225C264.7 15.325 265.801 14.875 267.132 14.875C268.463 14.875 269.564 15.325 270.434 16.225C271.305 17.075 271.74 18.15 271.74 19.45V20.65C273.122 18.85 274.863 17.325 276.962 16.075C279.112 14.775 281.493 14.125 284.104 14.125C290.555 14.125 294.676 16.875 296.468 22.375C297.645 20.275 299.412 18.375 301.767 16.675C304.173 14.975 306.886 14.125 309.907 14.125Z" fill="#005847"/>
<path d="M369.236 29.0821C369.504 30.2542 369.293 31.3189 368.602 32.2763C367.91 33.2337 366.971 33.8676 365.784 34.1782L341.305 40.584C342.681 43.2782 344.657 45.1681 347.234 46.2537C349.797 47.291 352.414 47.4603 355.085 46.7615C357.112 46.2309 358.648 45.6477 359.693 45.012C360.724 44.328 361.509 43.7087 362.045 43.1541C362.619 42.5383 363.009 42.1255 363.216 41.9159C363.987 41.2483 364.768 40.811 365.56 40.604C366.598 40.3322 367.588 40.4615 368.528 40.9918C369.469 41.5221 370.071 42.2703 370.336 43.2362C370.694 44.5402 370.327 45.9046 369.233 47.3295C368.153 48.8027 366.557 50.2297 364.445 51.6107C362.333 52.9917 360.09 53.9927 357.716 54.6139C353.562 55.7009 349.696 55.8069 346.116 54.9318C342.587 54.0438 339.577 52.3467 337.087 49.8406C334.584 47.2863 332.823 44.1497 331.802 40.4308C330.663 36.2774 330.553 32.3981 331.471 28.7929C332.39 25.1878 334.084 22.1824 336.551 19.7768C339.005 17.323 341.888 15.6625 345.201 14.7954C348.465 13.9413 351.77 14.0083 355.115 14.9964C358.51 15.9716 361.477 17.7057 364.016 20.1989C366.555 22.692 368.295 25.6531 369.236 29.0821ZM347.388 22.7643C341.651 24.2655 338.986 27.7841 339.392 33.3201L358.827 28.2343L358.687 27.7272C357.933 25.7506 356.442 24.2772 354.215 23.3071C351.988 22.337 349.712 22.1561 347.388 22.7643Z" fill="#005847"/>
<ellipse cx="248.304" cy="5" rx="5.11966" ry="5" fill="#005847"/>
<path d="M53.7565 44.3387L33.9514 22.2602L26.8782 14.375L19.805 22.2602L0 44.3387L7.07316 52.2238L26.8782 30.1453L46.6833 52.2238L53.7565 44.3387Z" fill="#1ABC9C"/>
<ellipse cx="26.5659" cy="53.75" rx="7.81344" ry="7.63081" fill="#1ABC9C"/>
</svg>
